<?xml version="1.0" encoding="UTF-8" standalone="no"?>
<!DOCTYPE svg PUBLIC "-//W3C//DTD SVG 1.1//EN"
 "http://www.w3.org/Graphics/SVG/1.1/DTD/svg11.dtd">
<!-- Generated by graphviz version 11.0.0 (20240428.1522)
 -->
<!-- Title: dependency&#45;cruiser output Pages: 1 -->
<svg width="324pt" height="236pt"
 viewBox="0.00 0.00 323.75 236.00" xmlns="http://www.w3.org/2000/svg" xmlns:xlink="http://www.w3.org/1999/xlink">
<g id="graph0" class="graph" transform="scale(1 1) rotate(0) translate(4 232)">
<title>dependency&#45;cruiser output</title>
<polygon fill="white" stroke="none" points="-4,4 -4,-232 319.75,-232 319.75,4 -4,4"/>
<g id="clust1" class="cluster">
<title>cluster_src</title>
<path fill="#ffffff" stroke="black" stroke-width="2" d="M20,-8C20,-8 295.75,-8 295.75,-8 301.75,-8 307.75,-14 307.75,-20 307.75,-20 307.75,-208 307.75,-208 307.75,-214 301.75,-220 295.75,-220 295.75,-220 20,-220 20,-220 14,-220 8,-214 8,-208 8,-208 8,-20 8,-20 8,-14 14,-8 20,-8"/>
<text text-anchor="middle" x="157.88" y="-207.45" font-family="Helvetica,sans-Serif" font-weight="bold" font-size="9.00">src</text>
</g>
<g id="clust2" class="cluster">
<title>cluster_src/types</title>
<path fill="#ffffff" stroke="black" stroke-width="2" d="M90.25,-16C90.25,-16 287.75,-16 287.75,-16 293.75,-16 299.75,-22 299.75,-28 299.75,-28 299.75,-182 299.75,-182 299.75,-188 293.75,-194 287.75,-194 287.75,-194 90.25,-194 90.25,-194 84.25,-194 78.25,-188 78.25,-182 78.25,-182 78.25,-28 78.25,-28 78.25,-22 84.25,-16 90.25,-16"/>
<text text-anchor="middle" x="189" y="-181.45" font-family="Helvetica,sans-Serif" font-weight="bold" font-size="9.00">types</text>
</g>
<g id="clust3" class="cluster">
<title>cluster_src/types/user</title>
<path fill="#ffffff" stroke="black" stroke-width="2" d="M98.25,-90C98.25,-90 214.38,-90 214.38,-90 220.38,-90 226.38,-96 226.38,-102 226.38,-102 226.38,-130 226.38,-130 226.38,-136 220.38,-142 214.38,-142 214.38,-142 98.25,-142 98.25,-142 92.25,-142 86.25,-136 86.25,-130 86.25,-130 86.25,-102 86.25,-102 86.25,-96 92.25,-90 98.25,-90"/>
<text text-anchor="middle" x="156.31" y="-129.45" font-family="Helvetica,sans-Serif" font-weight="bold" font-size="9.00">user</text>
</g>
<!-- src/types.d.ts -->
<g id="node1" class="node">
<title>src/types.d.ts</title>
<g id="a_node1"><a xlink:href="src/types.d.ts" xlink:title="types.d.ts">
<path fill="#ddfeff" stroke="black" d="M64.33,-128.88C64.33,-128.88 21.92,-128.88 21.92,-128.88 18.96,-128.88 16,-125.92 16,-122.96 16,-122.96 16,-117.04 16,-117.04 16,-114.08 18.96,-111.12 21.92,-111.12 21.92,-111.12 64.33,-111.12 64.33,-111.12 67.29,-111.12 70.25,-114.08 70.25,-117.04 70.25,-117.04 70.25,-122.96 70.25,-122.96 70.25,-125.92 67.29,-128.88 64.33,-128.88"/>
<text text-anchor="start" x="24" y="-116.33" font-family="Helvetica,sans-Serif" font-size="9.00">types.d.ts</text>
</a>
</g>
</g>
<!-- src/types/city.ts -->
<g id="node2" class="node">
<title>src/types/city.ts</title>
<g id="a_node2"><a xlink:href="src/types/city.ts" xlink:title="city.ts">
<path fill="#ddfeff" stroke="black" d="M212.46,-71.88C212.46,-71.88 170.29,-71.88 170.29,-71.88 167.33,-71.88 164.38,-68.92 164.38,-65.96 164.38,-65.96 164.38,-60.04 164.38,-60.04 164.38,-57.08 167.33,-54.12 170.29,-54.12 170.29,-54.12 212.46,-54.12 212.46,-54.12 215.42,-54.12 218.38,-57.08 218.38,-60.04 218.38,-60.04 218.38,-65.96 218.38,-65.96 218.38,-68.92 215.42,-71.88 212.46,-71.88"/>
<text text-anchor="start" x="180.12" y="-59.33" font-family="Helvetica,sans-Serif" font-size="9.00">city.ts</text>
</a>
</g>
</g>
<!-- src/types.d.ts&#45;&gt;src/types/city.ts -->
<g id="edge1" class="edge">
<title>src/types.d.ts&#45;&gt;src/types/city.ts</title>
<path fill="none" stroke="#000000" stroke-width="2" stroke-opacity="0.200000" d="M51.22,-110.7C57.5,-103.15 67.34,-92.82 78.25,-87 102.77,-73.93 133.88,-67.98 157.1,-65.27"/>
<polygon fill="#000000" fill-opacity="0.200000" stroke="#000000" stroke-width="2" stroke-opacity="0.200000" points="163.27,-66.72 157.08,-65.27 162.83,-62.54 163.27,-66.72"/>
</g>
<!-- src/types/user.ts -->
<g id="node3" class="node">
<title>src/types/user.ts</title>
<g id="a_node3"><a xlink:href="src/types/user.ts" xlink:title="user.ts">
<path fill="#ddfeff" stroke="black" d="M142.33,-167.88C142.33,-167.88 100.17,-167.88 100.17,-167.88 97.21,-167.88 94.25,-164.92 94.25,-161.96 94.25,-161.96 94.25,-156.04 94.25,-156.04 94.25,-153.08 97.21,-150.12 100.17,-150.12 100.17,-150.12 142.33,-150.12 142.33,-150.12 145.29,-150.12 148.25,-153.08 148.25,-156.04 148.25,-156.04 148.25,-161.96 148.25,-161.96 148.25,-164.92 145.29,-167.88 142.33,-167.88"/>
<text text-anchor="start" x="107.75" y="-155.32" font-family="Helvetica,sans-Serif" font-size="9.00">user.ts</text>
</a>
</g>
</g>
<!-- src/types.d.ts&#45;&gt;src/types/user.ts -->
<g id="edge2" class="edge">
<title>src/types.d.ts&#45;&gt;src/types/user.ts</title>
<path fill="none" stroke="#000000" stroke-width="2" stroke-opacity="0.200000" d="M54.92,-129.26C61.37,-134.43 69.9,-140.68 78.25,-145 81.17,-146.51 84.28,-147.9 87.45,-149.18"/>
<polygon fill="#000000" fill-opacity="0.200000" stroke="#000000" stroke-width="2" stroke-opacity="0.200000" points="92.29,-153.25 87.42,-149.17 93.77,-149.32 92.29,-153.25"/>
</g>
<!-- src/types/location.ts -->
<g id="node6" class="node">
<title>src/types/location.ts</title>
<g id="a_node6"><a xlink:href="src/types/location.ts" xlink:title="location.ts">
<path fill="#ddfeff" stroke="black" d="M285.83,-71.88C285.83,-71.88 240.42,-71.88 240.42,-71.88 237.46,-71.88 234.5,-68.92 234.5,-65.96 234.5,-65.96 234.5,-60.04 234.5,-60.04 234.5,-57.08 237.46,-54.12 240.42,-54.12 240.42,-54.12 285.83,-54.12 285.83,-54.12 288.79,-54.12 291.75,-57.08 291.75,-60.04 291.75,-60.04 291.75,-65.96 291.75,-65.96 291.75,-68.92 288.79,-71.88 285.83,-71.88"/>
<text text-anchor="start" x="242.5" y="-59.33" font-family="Helvetica,sans-Serif" font-size="9.00">location.ts</text>
</a>
</g>
</g>
<!-- src/types/city.ts&#45;&gt;src/types/location.ts -->
<g id="edge4" class="edge">
<title>src/types/city.ts&#45;&gt;src/types/location.ts</title>
<path fill="none" stroke="#000000" stroke-opacity="0.200000" d="M218.74,-63C221.45,-63 224.23,-63 227.01,-63"/>
<polygon fill="none" stroke="#000000" stroke-opacity="0.200000" points="226.81,-65.1 232.81,-63 226.81,-60.9 226.81,-65.1"/>
</g>
<!-- src/types/user.ts&#45;&gt;src/types/city.ts -->
<g id="edge6" class="edge">
<title>src/types/user.ts&#45;&gt;src/types/city.ts</title>
<path fill="none" stroke="#000000" stroke-opacity="0.200000" d="M143.41,-149.8C145.22,-148.39 146.89,-146.8 148.25,-145 164.21,-123.95 147.42,-109.51 161.25,-87 163.59,-83.19 166.75,-79.71 170.13,-76.64"/>
<polygon fill="none" stroke="#000000" stroke-opacity="0.200000" points="171.07,-78.59 174.37,-73.16 168.4,-75.35 171.07,-78.59"/>
</g>
<!-- src/types/car.ts -->
<g id="node4" class="node">
<title>src/types/car.ts</title>
<g id="a_node4"><a xlink:href="src/types/car.ts" xlink:title="car.ts">
<path fill="#ddfeff" stroke="black" d="M212.46,-167.88C212.46,-167.88 170.29,-167.88 170.29,-167.88 167.33,-167.88 164.38,-164.92 164.38,-161.96 164.38,-161.96 164.38,-156.04 164.38,-156.04 164.38,-153.08 167.33,-150.12 170.29,-150.12 170.29,-150.12 212.46,-150.12 212.46,-150.12 215.42,-150.12 218.38,-153.08 218.38,-156.04 218.38,-156.04 218.38,-161.96 218.38,-161.96 218.38,-164.92 215.42,-167.88 212.46,-167.88"/>
<text text-anchor="start" x="180.5" y="-155.32" font-family="Helvetica,sans-Serif" font-size="9.00">car.ts</text>
</a>
</g>
</g>
<!-- src/types/user.ts&#45;&gt;src/types/car.ts -->
<g id="edge5" class="edge">
<title>src/types/user.ts&#45;&gt;src/types/car.ts</title>
<path fill="none" stroke="#000000" stroke-opacity="0.200000" d="M148.39,-159C151.11,-159 153.89,-159 156.67,-159"/>
<polygon fill="none" stroke="#000000" stroke-opacity="0.200000" points="156.45,-161.1 162.45,-159 156.45,-156.9 156.45,-161.1"/>
</g>
<!-- src/types/carWash.ts -->
<g id="node5" class="node">
<title>src/types/carWash.ts</title>
<g id="a_node5"><a xlink:href="src/types/carWash.ts" xlink:title="carWash.ts">
<path fill="#ddfeff" stroke="black" d="M215.58,-41.88C215.58,-41.88 167.17,-41.88 167.17,-41.88 164.21,-41.88 161.25,-38.92 161.25,-35.96 161.25,-35.96 161.25,-30.04 161.25,-30.04 161.25,-27.08 164.21,-24.12 167.17,-24.12 167.17,-24.12 215.58,-24.12 215.58,-24.12 218.54,-24.12 221.5,-27.08 221.5,-30.04 221.5,-30.04 221.5,-35.96 221.5,-35.96 221.5,-38.92 218.54,-41.88 215.58,-41.88"/>
<text text-anchor="start" x="169.25" y="-29.32" font-family="Helvetica,sans-Serif" font-size="9.00">carWash.ts</text>
</a>
</g>
</g>
<!-- src/types/carWash.ts&#45;&gt;src/types/location.ts -->
<g id="edge3" class="edge">
<title>src/types/carWash.ts&#45;&gt;src/types/location.ts</title>
<path fill="none" stroke="#000000" stroke-opacity="0.200000" d="M214.06,-42.33C220.42,-45.06 227.46,-48.09 234.16,-50.97"/>
<polygon fill="none" stroke="#000000" stroke-opacity="0.200000" points="232.96,-52.74 239.3,-53.18 234.62,-48.88 232.96,-52.74"/>
</g>
<!-- src/types/user/auth.ts -->
<g id="node7" class="node">
<title>src/types/user/auth.ts</title>
<g id="a_node7"><a xlink:href="src/types/user/auth.ts" xlink:title="auth.ts">
<path fill="#ddfeff" stroke="black" d="M212.46,-115.88C212.46,-115.88 170.29,-115.88 170.29,-115.88 167.33,-115.88 164.38,-112.92 164.38,-109.96 164.38,-109.96 164.38,-104.04 164.38,-104.04 164.38,-101.08 167.33,-98.12 170.29,-98.12 170.29,-98.12 212.46,-98.12 212.46,-98.12 215.42,-98.12 218.38,-101.08 218.38,-104.04 218.38,-104.04 218.38,-109.96 218.38,-109.96 218.38,-112.92 215.42,-115.88 212.46,-115.88"/>
<text text-anchor="start" x="177.88" y="-103.33" font-family="Helvetica,sans-Serif" font-size="9.00">auth.ts</text>
</a>
</g>
</g>
<!-- src/types/user/store.ts -->
<g id="node8" class="node">
<title>src/types/user/store.ts</title>
<g id="a_node8"><a xlink:href="src/types/user/store.ts" xlink:title="store.ts">
<path fill="#ddfeff" stroke="black" d="M142.33,-115.88C142.33,-115.88 100.17,-115.88 100.17,-115.88 97.21,-115.88 94.25,-112.92 94.25,-109.96 94.25,-109.96 94.25,-104.04 94.25,-104.04 94.25,-101.08 97.21,-98.12 100.17,-98.12 100.17,-98.12 142.33,-98.12 142.33,-98.12 145.29,-98.12 148.25,-101.08 148.25,-104.04 148.25,-104.04 148.25,-109.96 148.25,-109.96 148.25,-112.92 145.29,-115.88 142.33,-115.88"/>
<text text-anchor="start" x="106.62" y="-103.33" font-family="Helvetica,sans-Serif" font-size="9.00">store.ts</text>
</a>
</g>
</g>
<!-- src/types/user/store.ts&#45;&gt;src/types/city.ts -->
<g id="edge7" class="edge">
<title>src/types/user/store.ts&#45;&gt;src/types/city.ts</title>
<path fill="none" stroke="#000000" stroke-opacity="0.200000" d="M142.5,-97.69C144.5,-96.53 146.45,-95.3 148.25,-94 154.88,-89.22 154.84,-86.07 161.25,-81 163.33,-79.35 165.57,-77.73 167.85,-76.18"/>
<polygon fill="none" stroke="#000000" stroke-opacity="0.200000" points="168.74,-78.11 172.63,-73.08 166.45,-74.59 168.74,-78.11"/>
</g>
<!-- src/types/user/store.ts&#45;&gt;src/types/location.ts -->
<g id="edge8" class="edge">
<title>src/types/user/store.ts&#45;&gt;src/types/location.ts</title>
<path fill="none" stroke="#000000" stroke-opacity="0.200000" d="M144.73,-97.67C150.09,-95.64 155.83,-93.62 161.25,-92 189.62,-83.55 198.13,-86.88 226.38,-78 229.26,-77.09 232.24,-76.04 235.19,-74.92"/>
<polygon fill="none" stroke="#000000" stroke-opacity="0.200000" points="235.75,-76.96 240.54,-72.79 234.19,-73.06 235.75,-76.96"/>
</g>
<!-- src/types/user/store.ts&#45;&gt;src/types/user/auth.ts -->
<g id="edge9" class="edge">
<title>src/types/user/store.ts&#45;&gt;src/types/user/auth.ts</title>
<path fill="none" stroke="#000000" stroke-opacity="0.200000" d="M148.39,-107C151.11,-107 153.89,-107 156.67,-107"/>
<polygon fill="none" stroke="#000000" stroke-opacity="0.200000" points="156.45,-109.1 162.45,-107 156.45,-104.9 156.45,-109.1"/>
</g>
</g>
</svg>
